# xmcd
#
# Track frame offsets:
#	150
#	11781
#	28531
#	38250
#	49038
#	59383
#	71663
#	79836
#	91079
#	103234
#	119391
#	129276
#	143458
#	155048
#	169785
#	183809
#	197061
#	207288
#	217492
#
# Disc length: 3076 seconds
#
# Revision: 0
# Processed by: cddbd v1.5.2PL0 Copyright (c) Steve Scherf et al.
# Submitted via: EasyCDDAExtractor 16.0.6.1
#
DISCID=070c0213
DTITLE=Salz and Pfäffer - Experience
DYEAR=2009
DGENRE=Blues
TTITLE0=Chattanooga Choo Choo
TTITLE1=Alltags Blues
TTITLE2=Jailhouse Rock
TTITLE3=Bambusy City
TTITLE4=Night Train
TTITLE5=Party Party
TTITLE6=Mascot Rumble
TTITLE7=St. Louis Blues
TTITLE8=Ja - Da
TTITLE9=Jaman
TTITLE10=Red Red Wine
TTITLE11=In The Mood Miller
TTITLE12=Merci - Merci
TTITLE13=Blues For Fritz
TTITLE14=Keep On Running
TTITLE15=Blues In The Night
TTITLE16=Swinging Sheperd Blues
TTITLE17=Dob's Boogie
TTITLE18=Georgia
EXTD=
EXTT0=
EXTT1=
EXTT2=
EXTT3=
EXTT4=
EXTT5=
EXTT6=
EXTT7=
EXTT8=
EXTT9=
EXTT10=
EXTT11=
EXTT12=
EXTT13=
EXTT14=
EXTT15=
EXTT16=
EXTT17=
EXTT18=
PLAYORDER=
